# xmcd CD database file
#
# Track frame offsets:
#	150
#	45400
#	84600
#	105400
#	152625
#	192100
#
# Disc length: 2897 seconds
#
# Revision: 0
# Processed by: cddbd v1.4PL0 Copyright (c) Steve Scherf et al.
# Submitted via: CDex 1.51
#
DISCID=3b0b4f06
DTITLE=Gismonti, Vasconcelos - Jazzbühne berlin 1984
DYEAR=1984
DGENRE=Jazz
TTITLE0=Em Familia
TTITLE1=Danca das Cabecas
TTITLE2=O Berimbao
TTITLE3=Selva Amazonica
TTITLE4=Corpo/Salvador
TTITLE5=Danca Solitarie No1
EXTD=YEAR: 1984
EXTT0=
EXTT1=
EXTT2=
EXTT3=
EXTT4=
EXTT5=
PLAYORDER=
